<?xml version="1.0" encoding="UTF-8" standalone="no"?>
<!DOCTYPE svg PUBLIC "-//W3C//DTD SVG 1.1//EN" "http://www.w3.org/Graphics/SVG/1.1/DTD/svg11.dtd">
<!-- Generated by Microsoft Visio, SVG Export block_diagram.svg Page-1 -->
<svg xmlns="http://www.w3.org/2000/svg" xmlns:xlink="http://www.w3.org/1999/xlink" xmlns:ev="http://www.w3.org/2001/xml-events"
		width="5.1428in" height="3.68086in" viewBox="0 0 370.282 265.022" xml:space="preserve" color-interpolation-filters="sRGB"
		class="st13">
	<title>mapu</title>

	<style type="text/css">
	<![CDATA[
		.st1 {fill:#ffffff;stroke:none;stroke-width:0.25}
		.st2 {fill:#f2f2f2;stroke:#000000;stroke-width:1}
		.st3 {fill:#000000;font-family:Calibri;font-size:1.5em}
		.st4 {fill:#ff0000;font-size:0.555557em}
		.st5 {marker-end:url(#mrkr5-12);stroke:#000000;stroke-linecap:round;stroke-linejoin:round;stroke-width:1}
		.st6 {fill:#000000;fill-opacity:1;stroke:#000000;stroke-opacity:1;stroke-width:0.28409090909091}
		.st7 {stroke:#000000;stroke-linecap:round;stroke-linejoin:round;stroke-width:1}
		.st8 {fill:#ffffff;stroke:#000000;stroke-width:1}
		.st9 {fill:none;stroke:none;stroke-width:0.25}
		.st10 {fill:#000000;font-family:Calibri;font-size:1.00001em}
		.st11 {fill:#000000;font-family:Calibri;font-size:0.833336em}
		.st12 {stroke:#ff0000;stroke-linecap:round;stroke-linejoin:round;stroke-width:1}
		.st13 {fill:none;fill-rule:evenodd;font-size:12px;overflow:visible;stroke-linecap:square;stroke-miterlimit:3}
	]]>
	</style>

	<defs id="Markers">
		<g id="lend5">
			<path d="M 2 1 L 0 0 L 1.98117 -0.993387 C 1.67173 -0.364515 1.67301 0.372641 1.98465 1.00043 " style="stroke:none"/>
		</g>
		<marker id="mrkr5-12" class="st6" refX="-6.16" orient="auto" markerUnits="strokeWidth" overflow="visible">
			<use xlink:href="#lend5" transform="scale(-3.52,-3.52) "/>
		</marker>
	</defs>
	<g>
		<title>Page-1</title>
		<g id="shape71-1" transform="translate(38.2677,-21.2598)">
			<title>Sheet.71</title>
			<rect x="0" y="43.6358" width="294.803" height="221.386" class="st1"/>
		</g>
		<g id="shape1-3" transform="translate(92.0823,-68.0138)">
			<title>Sheet.1</title>
			<desc>mapu_top DATA_WIDTH</desc>
			<rect x="0" y="129.758" width="180.293" height="135.263" class="st2"/>
			<text x="52.22" y="191.99" class="st3">mapu_top <tspan x="62.02" dy="2.16em" class="st4">DATA_WIDTH</tspan></text>		</g>
		<g id="shape8-7" transform="translate(410.962,39.0672) rotate(90)">
			<title>Sheet.8</title>
			<path d="M0 265.02 L16.52 265.02" class="st5"/>
		</g>
		<g id="shape10-13" transform="translate(478.427,39.0672) rotate(90)">
			<title>Sheet.10</title>
			<path d="M0 265.02 L16.52 265.02" class="st5"/>
		</g>
		<g id="shape11-18" transform="translate(-53.8842,225.899) rotate(-90)">
			<title>Sheet.11</title>
			<path d="M0 265.02 L22.73 265.02" class="st5"/>
		</g>
		<g id="shape12-23" transform="translate(-119.081,225.899) rotate(-90)">
			<title>Sheet.12</title>
			<path d="M0 265.02 L28.89 265.02" class="st7"/>
		</g>
		<g id="shape14-26" transform="translate(141.822,-68.0259)">
			<title>Triangle</title>
			<path d="M8.25 265.02 L4.13 256.77 L0 265.02 L8.25 265.02 Z" class="st8"/>
		</g>
		<g id="shape18-28" transform="translate(130.052,-226.772)">
			<title>Sheet.18</title>
			<desc>i_en</desc>
			<rect x="0" y="245.022" width="31.8211" height="20" class="st9"/>
			<text x="5.41" y="258.62" class="st10">i_en</text>		</g>
		<g id="shape19-31" transform="translate(197.559,-226.772)">
			<title>Sheet.19</title>
			<desc>i_op</desc>
			<rect x="0" y="245.022" width="31.8211" height="20" class="st9"/>
			<text x="5.23" y="258.62" class="st10">i_op</text>		</g>
		<g id="shape20-34" transform="translate(131.767,-18.4075)">
			<title>Sheet.20</title>
			<desc>clk</desc>
			<rect x="0" y="245.022" width="28.478" height="20" class="st9"/>
			<text x="7.6" y="258.62" class="st10">clk</text>		</g>
		<g id="shape21-37" transform="translate(188.662,-18.25)">
			<title>Sheet.21</title>
			<desc>reset_n</desc>
			<rect x="0" y="245.022" width="45.4859" height="20" class="st9"/>
			<text x="4.18" y="258.62" class="st10">reset_n</text>		</g>
		<g id="shape28-40" transform="translate(404.488,229.95) rotate(135)">
			<title>Sheet.28</title>
			<path d="M0 265.02 L10.61 265.02" class="st7"/>
		</g>
		<g id="shape29-43" transform="translate(214.137,-214.299)">
			<title>Sheet.29</title>
			<desc>3</desc>
			<rect x="0" y="254.784" width="12.4724" height="10.2379" class="st9"/>
			<text x="4" y="262.9" class="st11">3</text>		</g>
		<g id="group34-46" transform="translate(18.25,-157.226)">
			<title>Sheet.34</title>
			<g id="shape2-47" transform="translate(45.4859,-10)">
				<title>Sheet.2</title>
				<path d="M0 265.02 L22.19 265.02" class="st5"/>
			</g>
			<g id="shape16-52" transform="translate(247.391,438.752) rotate(135)">
				<title>Sheet.16</title>
				<path d="M0 265.02 L10.61 265.02" class="st12"/>
			</g>
			<g id="shape25-55">
				<title>Sheet.25</title>
				<desc>i_r0</desc>
				<rect x="0" y="245.022" width="45.4859" height="20" class="st9"/>
				<text x="22.49" y="258.62" class="st10">i_r0</text>			</g>
		</g>
		<g id="group35-58" transform="translate(18.25,-134.646)">
			<title>Sheet.35</title>
			<g id="shape36-59" transform="translate(45.4859,-10)">
				<title>Sheet.36</title>
				<path d="M0 265.02 L22.19 265.02" class="st5"/>
			</g>
			<g id="shape37-64" transform="translate(247.391,438.752) rotate(135)">
				<title>Sheet.37</title>
				<path d="M0 265.02 L10.61 265.02" class="st12"/>
			</g>
			<g id="shape38-67">
				<title>Sheet.38</title>
				<desc>i_r1</desc>
				<rect x="0" y="245.022" width="45.4859" height="20" class="st9"/>
				<text x="22.49" y="258.62" class="st10">i_r1</text>			</g>
		</g>
		<g id="group39-70" transform="translate(18.6577,-110.472)">
			<title>Sheet.39</title>
			<g id="shape40-71" transform="translate(45.4859,-10)">
				<title>Sheet.40</title>
				<path d="M0 265.02 L22.19 265.02" class="st5"/>
			</g>
			<g id="shape41-76" transform="translate(247.391,438.752) rotate(135)">
				<title>Sheet.41</title>
				<path d="M0 265.02 L10.61 265.02" class="st12"/>
			</g>
			<g id="shape42-79">
				<title>Sheet.42</title>
				<desc>i_r2</desc>
				<rect x="0" y="245.022" width="45.4859" height="20" class="st9"/>
				<text x="22.49" y="258.62" class="st10">i_r2</text>			</g>
		</g>
		<g id="group43-82" transform="translate(18.6577,-85.0394)">
			<title>Sheet.43</title>
			<g id="shape44-83" transform="translate(45.4859,-10)">
				<title>Sheet.44</title>
				<path d="M0 265.02 L22.19 265.02" class="st5"/>
			</g>
			<g id="shape45-88" transform="translate(247.391,438.752) rotate(135)">
				<title>Sheet.45</title>
				<path d="M0 265.02 L10.61 265.02" class="st12"/>
			</g>
			<g id="shape46-91">
				<title>Sheet.46</title>
				<desc>i_r3</desc>
				<rect x="0" y="245.022" width="45.4859" height="20" class="st9"/>
				<text x="22.49" y="258.62" class="st10">i_r3</text>			</g>
		</g>
		<g id="group47-94" transform="translate(272.375,-175.591)">
			<title>Sheet.47</title>
			<g id="shape7-95" transform="translate(3.38614,-10.3406) rotate(0.732079)">
				<title>Sheet.7</title>
				<path d="M0 265.02 L22.19 265.02" class="st5"/>
			</g>
			<g id="shape22-100" transform="translate(28.1368,5.68434E-14)">
				<title>Sheet.22</title>
				<desc>o_vld</desc>
				<rect x="0" y="245.022" width="45.4859" height="20" class="st9"/>
				<text x="4" y="258.62" class="st10">o_vld</text>			</g>
		</g>
		<g id="group49-103" transform="translate(272.375,-145.906)">
			<title>Sheet.49</title>
			<g id="shape6-104" transform="translate(2.869E-05,-10) rotate(6.20258E-06)">
				<title>Sheet.6</title>
				<path d="M0 265.02 L22.19 265.02" class="st5"/>
			</g>
			<g id="shape17-109" transform="translate(202.696,439.085) rotate(135)">
				<title>Sheet.17</title>
				<path d="M0 265.02 L10.61 265.02" class="st12"/>
			</g>
			<g id="shape23-112" transform="translate(26.6361,5.68434E-14)">
				<title>Sheet.23</title>
				<desc>o_r0</desc>
				<rect x="0" y="245.022" width="52.6127" height="20" class="st9"/>
				<text x="4" y="258.62" class="st10">o_r0</text>			</g>
		</g>
		<g id="group50-115" transform="translate(272.783,-125.646)">
			<title>Sheet.50</title>
			<g id="shape51-116" transform="translate(2.869E-05,-10) rotate(6.20258E-06)">
				<title>Sheet.51</title>
				<path d="M0 265.02 L22.19 265.02" class="st5"/>
			</g>
			<g id="shape52-121" transform="translate(202.696,439.085) rotate(135)">
				<title>Sheet.52</title>
				<path d="M0 265.02 L10.61 265.02" class="st12"/>
			</g>
			<g id="shape53-124" transform="translate(26.6361,5.68434E-14)">
				<title>Sheet.53</title>
				<desc>o_r1</desc>
				<rect x="0" y="245.022" width="52.6127" height="20" class="st9"/>
				<text x="4" y="258.62" class="st10">o_r1</text>			</g>
		</g>
		<g id="group63-127" transform="translate(272.218,-107.559)">
			<title>Sheet.63</title>
			<g id="shape64-128" transform="translate(2.869E-05,-10) rotate(6.20258E-06)">
				<title>Sheet.64</title>
				<path d="M0 265.02 L22.19 265.02" class="st5"/>
			</g>
			<g id="shape65-133" transform="translate(202.696,439.085) rotate(135)">
				<title>Sheet.65</title>
				<path d="M0 265.02 L10.61 265.02" class="st12"/>
			</g>
			<g id="shape66-136" transform="translate(26.6361,5.68434E-14)">
				<title>Sheet.66</title>
				<desc>o_r2</desc>
				<rect x="0" y="245.022" width="52.6127" height="20" class="st9"/>
				<text x="4" y="258.62" class="st10">o_r2</text>			</g>
		</g>
		<g id="group67-139" transform="translate(272.625,-87.299)">
			<title>Sheet.67</title>
			<g id="shape68-140" transform="translate(2.869E-05,-10) rotate(6.20258E-06)">
				<title>Sheet.68</title>
				<path d="M0 265.02 L22.19 265.02" class="st5"/>
			</g>
			<g id="shape69-145" transform="translate(202.696,439.085) rotate(135)">
				<title>Sheet.69</title>
				<path d="M0 265.02 L10.61 265.02" class="st12"/>
			</g>
			<g id="shape70-148" transform="translate(26.6361,5.68434E-14)">
				<title>Sheet.70</title>
				<desc>o_r3</desc>
				<rect x="0" y="245.022" width="52.6127" height="20" class="st9"/>
				<text x="4" y="258.62" class="st10">o_r3</text>			</g>
		</g>
	</g>
</svg>
