<?xml version="1.0" encoding="UTF-8" standalone="no"?>
<!DOCTYPE svg PUBLIC "-//W3C//DTD SVG 1.1//EN" "http://www.w3.org/Graphics/SVG/1.1/DTD/svg11.dtd">
<!-- Generated by Microsoft Visio, SVG Export block_diagram.svg Page-1 -->
<svg xmlns="http://www.w3.org/2000/svg" xmlns:xlink="http://www.w3.org/1999/xlink" xmlns:ev="http://www.w3.org/2001/xml-events"
		width="5.23532in" height="3.91902in" viewBox="0 0 376.943 282.169" xml:space="preserve" color-interpolation-filters="sRGB"
		class="st13">
	<style type="text/css">
	<![CDATA[
		.st1 {fill:#ffffff;stroke:none;stroke-width:0.25}
		.st2 {fill:#f2f2f2;stroke:#000000;stroke-width:1}
		.st3 {fill:#000000;font-family:Calibri;font-size:1.5em}
		.st4 {fill:#ff0000;font-size:0.555557em}
		.st5 {marker-end:url(#mrkr5-14);stroke:#000000;stroke-linecap:round;stroke-linejoin:round;stroke-width:1}
		.st6 {fill:#000000;fill-opacity:1;stroke:#000000;stroke-opacity:1;stroke-width:0.28409090909091}
		.st7 {stroke:#000000;stroke-linecap:round;stroke-linejoin:round;stroke-width:1}
		.st8 {fill:#ffffff;stroke:#000000;stroke-width:1}
		.st9 {fill:none;stroke:none;stroke-width:0.25}
		.st10 {fill:#000000;font-family:Calibri;font-size:1.00001em}
		.st11 {stroke:#ff0000;stroke-linecap:round;stroke-linejoin:round;stroke-width:1}
		.st12 {marker-start:url(#mrkr5-129);stroke:#000000;stroke-linecap:round;stroke-linejoin:round;stroke-width:1}
		.st13 {fill:none;fill-rule:evenodd;font-size:12px;overflow:visible;stroke-linecap:square;stroke-miterlimit:3}
	]]>
	</style>

	<defs id="Markers">
		<g id="lend5">
			<path d="M 2 1 L 0 0 L 1.98117 -0.993387 C 1.67173 -0.364515 1.67301 0.372641 1.98465 1.00043 " style="stroke:none"/>
		</g>
		<marker id="mrkr5-14" class="st6" refX="-6.16" orient="auto" markerUnits="strokeWidth" overflow="visible">
			<use xlink:href="#lend5" transform="scale(-3.52,-3.52) "/>
		</marker>
		<marker id="mrkr5-129" class="st6" refX="5.8" orient="auto" markerUnits="strokeWidth" overflow="visible">
			<use xlink:href="#lend5" transform="scale(3.52) "/>
		</marker>
	</defs>
	<g>
		<title>Page-1</title>
		<g id="shape95-1" transform="translate(18.4252,-18.1417)">
			<title>Sheet.95</title>
			<rect x="0" y="36.1221" width="340.441" height="246.047" class="st1"/>
		</g>
		<g id="shape71-3" transform="translate(18,-18)">
			<title>Sheet.71</title>
			<rect x="0" y="36" width="340.943" height="246.169" class="st1"/>
		</g>
		<g id="shape1-5" transform="translate(98.3268,-82.2047)">
			<title>Sheet.1</title>
			<desc>mapu_top DATA_WIDTH</desc>
			<rect x="0" y="143.949" width="180.293" height="138.22" class="st2"/>
			<text x="52.22" y="207.66" class="st3">mapu_top <tspan x="62.02" dy="2.16em" class="st4">DATA_WIDTH</tspan></text>		</g>
		<g id="shape8-9" transform="translate(434.354,39.0672) rotate(90)">
			<title>Sheet.8</title>
			<path d="M0 282.17 L16.52 282.17" class="st5"/>
		</g>
		<g id="shape10-15" transform="translate(473.443,39.0672) rotate(90)">
			<title>Sheet.10</title>
			<path d="M0 282.17 L16.52 282.17" class="st5"/>
		</g>
		<g id="shape11-20" transform="translate(-64.7874,226.362) rotate(-90)">
			<title>Sheet.11</title>
			<path d="M0 282.17 L20.24 282.17" class="st5"/>
		</g>
		<g id="shape12-25" transform="translate(-129.984,225.476) rotate(-90)">
			<title>Sheet.12</title>
			<path d="M0 282.17 L25.51 282.17" class="st7"/>
		</g>
		<g id="shape14-28" transform="translate(148.066,-73.8258)">
			<title>Triangle</title>
			<path d="M8.25 282.17 L4.13 273.92 L0 282.17 L8.25 282.17 Z" class="st8"/>
		</g>
		<g id="shape18-30" transform="translate(136.296,-243.919)">
			<title>Sheet.18</title>
			<desc>i_en</desc>
			<rect x="0" y="262.169" width="31.8211" height="20" class="st9"/>
			<text x="5.41" y="275.77" class="st10">i_en</text>		</g>
		<g id="shape19-33" transform="translate(175.428,-243.919)">
			<title>Sheet.19</title>
			<desc>i_op</desc>
			<rect x="0" y="262.169" width="31.8211" height="20" class="st9"/>
			<text x="5.23" y="275.77" class="st10">i_op</text>		</g>
		<g id="shape20-36" transform="translate(138.012,-28.4469)">
			<title>Sheet.20</title>
			<desc>clk</desc>
			<rect x="0" y="262.169" width="28.478" height="20" class="st9"/>
			<text x="7.6" y="275.77" class="st10">clk</text>		</g>
		<g id="shape21-39" transform="translate(194.907,-28.3465)">
			<title>Sheet.21</title>
			<desc>reset_n</desc>
			<rect x="0" y="262.169" width="45.4859" height="20" class="st9"/>
			<text x="4.18" y="275.77" class="st10">reset_n</text>		</g>
		<g id="group39-42" transform="translate(24.9022,-96.3602)">
			<title>Sheet.39</title>
			<g id="shape40-43" transform="translate(45.4859,-10)">
				<title>Sheet.40</title>
				<path d="M0 282.17 L22.19 282.17" class="st5"/>
			</g>
			<g id="shape41-48" transform="translate(259.516,468.025) rotate(135)">
				<title>Sheet.41</title>
				<path d="M0 282.17 L10.61 282.17" class="st11"/>
			</g>
			<g id="shape42-51">
				<title>Sheet.42</title>
				<desc>i_r2</desc>
				<rect x="0" y="262.169" width="45.4859" height="20" class="st9"/>
				<text x="22.49" y="275.77" class="st10">i_r2</text>			</g>
		</g>
		<g id="group49-54" transform="translate(278.62,-138.88)">
			<title>Sheet.49</title>
			<g id="shape6-55" transform="translate(3.05464E-05,-10) rotate(6.20258E-06)">
				<title>Sheet.6</title>
				<path d="M0 282.17 L22.19 282.17" class="st5"/>
			</g>
			<g id="shape17-60" transform="translate(214.821,468.358) rotate(135)">
				<title>Sheet.17</title>
				<path d="M0 282.17 L10.61 282.17" class="st11"/>
			</g>
			<g id="shape23-63" transform="translate(26.6361,0)">
				<title>Sheet.23</title>
				<desc>o_r0</desc>
				<rect x="0" y="262.169" width="52.6127" height="20" class="st9"/>
				<text x="4" y="275.77" class="st10">o_r0</text>			</g>
		</g>
		<g id="group50-66" transform="translate(279.027,-117.541)">
			<title>Sheet.50</title>
			<g id="shape51-67" transform="translate(3.05464E-05,-10) rotate(6.20258E-06)">
				<title>Sheet.51</title>
				<path d="M0 282.17 L22.19 282.17" class="st5"/>
			</g>
			<g id="shape52-72" transform="translate(214.821,468.358) rotate(135)">
				<title>Sheet.52</title>
				<path d="M0 282.17 L10.61 282.17" class="st11"/>
			</g>
			<g id="shape53-75" transform="translate(26.6361,0)">
				<title>Sheet.53</title>
				<desc>o_r1</desc>
				<rect x="0" y="262.169" width="52.6127" height="20" class="st9"/>
				<text x="4" y="275.77" class="st10">o_r1</text>			</g>
		</g>
		<g id="group63-78" transform="translate(278.462,-96.3602)">
			<title>Sheet.63</title>
			<g id="shape64-79" transform="translate(3.05464E-05,-10) rotate(6.20258E-06)">
				<title>Sheet.64</title>
				<path d="M0 282.17 L22.19 282.17" class="st5"/>
			</g>
			<g id="shape65-84" transform="translate(214.821,468.358) rotate(135)">
				<title>Sheet.65</title>
				<path d="M0 282.17 L10.61 282.17" class="st11"/>
			</g>
			<g id="shape66-87" transform="translate(26.6361,0)">
				<title>Sheet.66</title>
				<desc>o_r2</desc>
				<rect x="0" y="262.169" width="52.6127" height="20" class="st9"/>
				<text x="4" y="275.77" class="st10">o_r2</text>			</g>
		</g>
		<g id="group72-90" transform="translate(24.4112,-138.88)">
			<title>Sheet.72</title>
			<g id="shape73-91" transform="translate(45.4859,-10)">
				<title>Sheet.73</title>
				<path d="M0 282.17 L22.19 282.17" class="st5"/>
			</g>
			<g id="shape74-96" transform="translate(259.516,468.025) rotate(135)">
				<title>Sheet.74</title>
				<path d="M0 282.17 L10.61 282.17" class="st11"/>
			</g>
			<g id="shape75-99">
				<title>Sheet.75</title>
				<desc>i_r0</desc>
				<rect x="0" y="262.169" width="45.4859" height="20" class="st9"/>
				<text x="22.49" y="275.77" class="st10">i_r0</text>			</g>
		</g>
		<g id="group76-102" transform="translate(24.2444,-117.541)">
			<title>Sheet.76</title>
			<g id="shape77-103" transform="translate(45.4859,-10)">
				<title>Sheet.77</title>
				<path d="M0 282.17 L22.19 282.17" class="st5"/>
			</g>
			<g id="shape78-108" transform="translate(259.516,468.025) rotate(135)">
				<title>Sheet.78</title>
				<path d="M0 282.17 L10.61 282.17" class="st11"/>
			</g>
			<g id="shape79-111">
				<title>Sheet.79</title>
				<desc>i_r1</desc>
				<rect x="0" y="262.169" width="45.4859" height="20" class="st9"/>
				<text x="22.49" y="275.77" class="st10">i_r1</text>			</g>
		</g>
		<g id="group80-114" transform="translate(279.111,-185.652)">
			<title>Sheet.80</title>
			<g id="shape81-115" transform="translate(3.05464E-05,-10) rotate(6.20258E-06)">
				<title>Sheet.81</title>
				<path d="M0 282.17 L22.19 282.17" class="st5"/>
			</g>
			<g id="shape83-120" transform="translate(26.6361,0)">
				<title>Sheet.83</title>
				<desc>o_vld</desc>
				<rect x="0" y="262.169" width="52.6127" height="20" class="st9"/>
				<text x="4" y="275.77" class="st10">o_vld</text>			</g>
		</g>
		<g id="group84-123" transform="translate(278.777,-168.801)">
			<title>Sheet.84</title>
			<g id="shape85-124" transform="translate(3.05464E-05,-10) rotate(6.20258E-06)">
				<title>Sheet.85</title>
				<path d="M5.8 282.17 L6.16 282.17 L28.35 282.17" class="st12"/>
			</g>
			<g id="shape86-130" transform="translate(27.3031,0)">
				<title>Sheet.86</title>
				<desc>i_rdy</desc>
				<rect x="0" y="262.169" width="52.6127" height="20" class="st9"/>
				<text x="4" y="275.77" class="st10">i_rdy</text>			</g>
		</g>
		<g id="group87-133" transform="translate(97.8323,-185.652) scale(-1,1)">
			<title>Sheet.87</title>
			<g id="shape88-134" transform="translate(3.05464E-05,-10) rotate(6.20258E-06)">
				<title>Sheet.88</title>
				<path d="M5.8 282.17 L6.16 282.17 L28.35 282.17" class="st12"/>
			</g>
			<g id="shape89-139" transform="translate(26.6361,0)">
				<title>Sheet.89</title>
				<desc>i_vld</desc>
				<rect x="0" y="262.169" width="52.6127" height="20" class="st9"/>
				<text x="-27.21" y="275.77" transform="scale(-1,1)" class="st10">i_vld</text>			</g>
		</g>
		<g id="group90-142" transform="translate(98.1658,-168.801) scale(-1,1)">
			<title>Sheet.90</title>
			<g id="shape91-143" transform="translate(3.05464E-05,-10) rotate(6.20258E-06)">
				<title>Sheet.91</title>
				<path d="M0 282.17 L22.19 282.17" class="st5"/>
			</g>
			<g id="shape92-148" transform="translate(27.3031,0)">
				<title>Sheet.92</title>
				<desc>o_rdy</desc>
				<rect x="0" y="262.169" width="52.6127" height="20" class="st9"/>
				<text x="-32.22" y="275.77" transform="scale(-1,1)" class="st10">o_rdy</text>			</g>
		</g>
		<g id="shape93-151" transform="translate(514.226,61.8937) rotate(90) scale(-1,1)">
			<title>Sheet.93</title>
			<path d="M0 282.17 L16.52 282.17" class="st5"/>
		</g>
		<g id="shape94-156" transform="translate(216.21,-243.77)">
			<title>Sheet.94</title>
			<desc>o_of</desc>
			<rect x="0" y="262.169" width="31.8211" height="20" class="st9"/>
			<text x="4.76" y="275.77" class="st10">o_of</text>		</g>
	</g>
</svg>
