<?xml version="1.0" encoding="UTF-8" standalone="no"?>
<!DOCTYPE svg PUBLIC "-//W3C//DTD SVG 1.1//EN" "http://www.w3.org/Graphics/SVG/1.1/DTD/svg11.dtd">
<!-- Generated by Microsoft Visio, SVG Export env_block_diagram.svg Page-1 -->
<svg xmlns="http://www.w3.org/2000/svg" xmlns:xlink="http://www.w3.org/1999/xlink" xmlns:ev="http://www.w3.org/2001/xml-events"
		width="7.96561in" height="5.15926in" viewBox="0 0 573.524 371.467" xml:space="preserve" color-interpolation-filters="sRGB"
		class="st26">
	<title>uvme_mapu_env_c</title>

	<style type="text/css">
	<![CDATA[
		.st1 {fill:#ffffff;stroke:#000000;stroke-linecap:round;stroke-linejoin:round;stroke-width:1}
		.st2 {fill:#000000;font-family:Calibri;font-size:0.833336em;font-weight:bold}
		.st3 {fill:#f2f2f2;stroke:#000000;stroke-linecap:round;stroke-linejoin:round;stroke-width:1}
		.st4 {fill:#000000;font-family:Calibri;font-size:0.666664em}
		.st5 {font-size:1.25001em;font-weight:bold}
		.st6 {marker-end:url(#mrkr5-22);stroke:#0070c0;stroke-linecap:round;stroke-linejoin:round;stroke-width:1}
		.st7 {fill:#0070c0;fill-opacity:1;stroke:#0070c0;stroke-opacity:1;stroke-width:0.28409090909091}
		.st8 {marker-end:url(#mrkr5-37);stroke:#ff0000;stroke-linecap:round;stroke-linejoin:round;stroke-width:1}
		.st9 {fill:#ff0000;fill-opacity:1;stroke:#ff0000;stroke-opacity:1;stroke-width:0.28409090909091}
		.st10 {fill:#f2f2f2;stroke:#0070c0;stroke-linecap:round;stroke-linejoin:round;stroke-width:1}
		.st11 {fill:#ffffff;stroke:#0070c0;stroke-linecap:round;stroke-linejoin:round;stroke-width:1}
		.st12 {fill:#f2f2f2;stroke:#ff0000;stroke-linecap:round;stroke-linejoin:round;stroke-width:1}
		.st13 {fill:#ffffff;stroke:#ff0000;stroke-linecap:round;stroke-linejoin:round;stroke-width:1}
		.st14 {fill:#f2f2f2;stroke:#00b050;stroke-linecap:round;stroke-linejoin:round;stroke-width:1}
		.st15 {fill:#ffffff;stroke:#00b050;stroke-linecap:round;stroke-linejoin:round;stroke-width:1}
		.st16 {marker-end:url(#mrkr5-78);stroke:#00b050;stroke-linecap:round;stroke-linejoin:round;stroke-width:1}
		.st17 {fill:#00b050;fill-opacity:1;stroke:#00b050;stroke-opacity:1;stroke-width:0.28409090909091}
		.st18 {fill:none;stroke:none;stroke-linecap:round;stroke-linejoin:round;stroke-width:0.75}
		.st19 {fill:none;stroke:none;stroke-linecap:round;stroke-linejoin:round;stroke-width:1}
		.st20 {fill:#7030a0;font-family:Calibri;font-size:0.833336em;font-weight:bold}
		.st21 {fill:#ffffff;stroke:#7030a0;stroke-linecap:round;stroke-linejoin:round;stroke-width:1.5}
		.st22 {fill:#000000;font-family:Calibri;font-size:0.833336em}
		.st23 {fill:#ffffff;stroke:none;stroke-linecap:butt;stroke-width:7.2}
		.st24 {fill:#ff0000;font-family:Calibri;font-size:0.75em}
		.st25 {fill:#0070c0;font-family:Calibri;font-size:0.75em}
		.st26 {fill:none;fill-rule:evenodd;font-size:12px;overflow:visible;stroke-linecap:square;stroke-miterlimit:3}
	]]>
	</style>

	<defs id="Markers">
		<g id="lend5">
			<path d="M 2 1 L 0 0 L 1.98117 -0.993387 C 1.67173 -0.364515 1.67301 0.372641 1.98465 1.00043 " style="stroke:none"/>
		</g>
		<marker id="mrkr5-22" class="st7" refX="-6.16" orient="auto" markerUnits="strokeWidth" overflow="visible">
			<use xlink:href="#lend5" transform="scale(-3.52,-3.52) "/>
		</marker>
		<marker id="mrkr5-37" class="st9" refX="-6.16" orient="auto" markerUnits="strokeWidth" overflow="visible">
			<use xlink:href="#lend5" transform="scale(-3.52,-3.52) "/>
		</marker>
		<marker id="mrkr5-78" class="st17" refX="-6.16" orient="auto" markerUnits="strokeWidth" overflow="visible">
			<use xlink:href="#lend5" transform="scale(-3.52,-3.52) "/>
		</marker>
	</defs>
	<g>
		<title>Page-1</title>
		<g id="shape2-1" transform="translate(18.5,-23.2441)">
			<title>Sheet.2</title>
			<desc>&#60;uvme_mapu_env_c&#62;</desc>
			<rect x="0" y="61.6403" width="534.256" height="309.827" class="st1"/>
			<text x="4" y="74.64" class="st2">&#60;uvme_mapu_env_c&#62;</text>		</g>
		<g id="shape118-4" transform="translate(404.664,-150.591)">
			<title>Sheet.118</title>
			<desc>&#60;uvme_mapu_vsqr_c&#62; vsequencer</desc>
			<rect x="0" y="322.271" width="139.588" height="49.1964" class="st3"/>
			<text x="26.14" y="343.27" class="st4">&#60;uvme_mapu_vsqr_c&#62; <tspan x="45.96" dy="1.14em" class="st5">vsequencer</tspan></text>		</g>
		<g id="shape174-8" transform="translate(423.673,-289.638)">
			<title>Sheet.174</title>
			<desc>&#60;uvme_mapu_cfg_c&#62; cfg</desc>
			<rect x="0" y="337.64" width="104.722" height="33.8267" class="st1"/>
			<text x="10.78" y="350.95" class="st4">&#60;uvme_mapu_cfg_c&#62; <tspan x="46.32" dy="1.14em" class="st5">cfg</tspan></text>		</g>
		<g id="shape175-12" transform="translate(422.666,-243.464)">
			<title>Sheet.175</title>
			<desc>&#60;uvme_mapu_cntxt_c&#62; cntxt</desc>
			<rect x="0" y="337.64" width="104.722" height="33.8267" class="st1"/>
			<text x="7.37" y="350.95" class="st4">&#60;uvme_mapu_cntxt_c&#62; <tspan x="41.82" dy="1.14em" class="st5">cntxt</tspan></text>		</g>
		<g id="group270-16" transform="translate(52.5157,-150.427)">
			<title>Sheet.270</title>
		</g>
		<g id="shape309-17" transform="translate(178.026,-212.569)">
			<title>Dynamic connector.309</title>
			<path d="M0.77 364.38 L7.24 364.38" class="st6"/>
		</g>
		<g id="shape437-23" transform="translate(404.664,-91.1169)">
			<title>Sheet.437</title>
			<desc>&#60;uvme_mapu_cov_model_c&#62; cov_model</desc>
			<rect x="0" y="323.386" width="139.588" height="48.0811" class="st3"/>
			<text x="15.09" y="343.83" class="st4">&#60;uvme_mapu_cov_model_c&#62; <tspan x="46.97" dy="1.14em" class="st5">cov_model</tspan></text>		</g>
		<g id="shape439-27" transform="translate(177.942,-54.3092)">
			<title>Dynamic connector.439</title>
			<path d="M0.89 364.38 L7.13 364.38" class="st6"/>
		</g>
		<g id="shape451-32" transform="translate(272.894,-272.503)">
			<title>Dynamic connector.451</title>
			<path d="M7.06 371.47 L7.06 377.8 L7.11 377.8 L7.11 383.1" class="st8"/>
		</g>
		<g id="group453-38" transform="translate(26.9291,-201.473)">
			<title>Sheet.453</title>
			<g id="shape114-39">
				<title>Sheet.114</title>
				<desc>&#60;uvma_mapu_dpi_agent_c&#62; dpi_agent</desc>
				<rect x="0" y="335.101" width="144.481" height="36.3657" class="st10"/>
				<text x="19.18" y="349.68" class="st4">&#60;uvma_mapu_dpi_agent_c&#62; <tspan x="51.38" dy="1.14em"
							class="st5">dp</tspan><tspan class="st5">i</tspan><tspan class="st5">_agent</tspan></text>			</g>
			<g id="shape115-45" transform="translate(508.609,345.922) rotate(90)">
				<title>Diamond.115</title>
				<path d="M7.36 371.47 L14.72 364.1 L7.36 356.74 L0 364.1 L7.36 371.47 Z" class="st11"/>
			</g>
		</g>
		<g id="group454-47" transform="translate(204.094,-272.503)">
			<title>Sheet.454</title>
			<g id="shape441-48" transform="translate(-7.99361E-14,-7.07628)">
				<title>Sheet.441</title>
				<desc>&#60;uvma_mapu_cp_agent_c&#62; cp_agent</desc>
				<rect x="0" y="328.273" width="151.866" height="43.194" class="st12"/>
				<text x="24.2" y="346.27" class="st4">&#60;uvma_mapu_cp_agent_c&#62; <tspan x="56.9" dy="1.14em" class="st5">cp_agent</tspan></text>			</g>
			<g id="shape442-52" transform="translate(68.4998,0)">
				<title>Diamond.322</title>
				<path d="M7.36 371.47 L14.72 364.1 L7.36 356.74 L0 364.1 L7.36 371.47 Z" class="st13"/>
			</g>
		</g>
		<g id="shape463-54" transform="translate(376.319,-219.368)">
			<title>Dynamic connector.463</title>
			<path d="M-6.71 371.47 L12.03 371.47 L12.03 528.39 L-1.3 528.39" class="st6"/>
		</g>
		<g id="group468-59" transform="translate(26.9291,-147.886)">
			<title>Sheet.468</title>
			<g id="shape456-60">
				<title>Sheet.456</title>
				<desc>&#60;uvma_reset_agent_c&#62; reset_agent</desc>
				<rect x="0" y="335.101" width="144.481" height="36.3657" class="st14"/>
				<text x="34.06" y="349.68" class="st4">&#60;uvma_reset_agent_c&#62; <tspan x="47.44" dy="1.14em" class="st5">reset_agent</tspan></text>			</g>
			<g id="shape457-64" transform="translate(508.668,345.922) rotate(90)">
				<title>Diamond.457</title>
				<path d="M7.36 371.47 L14.72 364.1 L7.36 356.74 L0 364.1 L7.36 371.47 Z" class="st15"/>
			</g>
		</g>
		<g id="group469-66" transform="translate(26.9291,-98.28)">
			<title>Sheet.469</title>
			<g id="shape459-67">
				<title>Sheet.459</title>
				<desc>&#60;uvma_clk_agent_c&#62; clk_agent</desc>
				<rect x="0" y="335.101" width="144.481" height="36.3657" class="st14"/>
				<text x="37.91" y="349.68" class="st4">&#60;uvma_clk_agent_c&#62; <tspan x="52.26" dy="1.14em" class="st5">clk_agent</tspan></text>			</g>
			<g id="shape460-71" transform="translate(508.609,345.922) rotate(90)">
				<title>Diamond.460</title>
				<path d="M7.36 371.47 L14.72 364.1 L7.36 356.74 L0 364.1 L7.36 371.47 Z" class="st15"/>
			</g>
		</g>
		<g id="shape470-73" transform="translate(178.855,-166.069)">
			<title>Dynamic connector.470</title>
			<path d="M0 371.47 L73.37 371.47 L73.37 359.44" class="st16"/>
		</g>
		<g id="shape471-79" transform="translate(178.796,-116.463)">
			<title>Dynamic connector.471</title>
			<path d="M0 371.47 L125.99 371.47 L125.99 309.84" class="st16"/>
		</g>
		<g id="group472-84" transform="translate(26.9291,-44.2671)">
			<title>Sheet.472</title>
			<g id="shape426-85">
				<title>Sheet.426</title>
				<desc>&#60;uvma_mapu_dpo_agent_c&#62; dpo_agent</desc>
				<rect x="0" y="335.101" width="144.481" height="36.3657" class="st10"/>
				<text x="17.99" y="349.68" class="st4">&#60;uvma_mapu_dpo_agent_c&#62; <tspan x="49.92" dy="1.14em"
							class="st5">dp</tspan><tspan class="st5">o</tspan><tspan class="st5">_agent</tspan></text>			</g>
			<g id="shape427-91" transform="translate(508.642,346.976) rotate(90)">
				<title>Diamond.427</title>
				<path d="M7.36 371.47 L14.72 364.1 L7.36 356.74 L0 364.1 L7.36 371.47 Z" class="st11"/>
			</g>
		</g>
		<g id="group473-93" transform="translate(191.228,-32.7739)">
			<title>Sheet.473</title>
			<g id="shape359-94" transform="translate(5.77981,0)">
				<title>Sheet.359</title>
				<desc>&#60;uvme_mapu_sb_c&#62; scoreboard</desc>
				<rect x="0" y="312.115" width="165.818" height="59.3521" class="st3"/>
				<text x="42.45" y="338.19" class="st4">&#60;uvme_mapu_sb_c&#62; <tspan x="59.54" dy="1.14em" class="st5">scoreboard</tspan></text>			</g>
			<g id="shape438-98" transform="translate(1.4988E-14,708.701) scale(1,-1)">
				<title>Circle.438</title>
				<path d="M0 365.86 A5.61129 5.61129 0 0 1 11.22 365.86 A5.61129 5.61129 0 0 1 0 365.86 Z" class="st11"/>
			</g>
			<g id="shape464-100" transform="translate(177.63,-24.0647) scale(-1,1)">
				<title>Circle.464</title>
				<path d="M0 365.86 A5.61129 5.61129 0 0 1 11.22 365.86 A5.61129 5.61129 0 0 1 0 365.86 Z" class="st11"/>
			</g>
		</g>
		<g id="group475-102" transform="translate(191.429,-184.252)">
			<title>Sheet.475</title>
			<g id="shape263-103" transform="translate(5.61752,-5.64006)">
				<title>Sheet.263</title>
				<desc>&#60;uvme_mapu_prd_c&#62; predictor</desc>
				<rect x="0" y="312.115" width="165.818" height="59.3521" class="st3"/>
				<text x="40.52" y="338.19" class="st4">&#60;uvme_mapu_prd_c&#62; <tspan x="63.73" dy="1.14em" class="st5">predictor</tspan></text>			</g>
			<g id="shape281-107" transform="translate(-1.79856E-14,701.919) scale(1,-1)">
				<title>Circle.121</title>
				<path d="M0 365.86 A5.61129 5.61129 0 0 1 11.22 365.86 A5.61129 5.61129 0 0 1 0 365.86 Z" class="st11"/>
			</g>
			<g id="shape449-109" transform="translate(82.9644,672.477) scale(1,-1)">
				<title>Circle.449</title>
				<path d="M0 365.86 A5.61129 5.61129 0 0 1 11.22 365.86 A5.61129 5.61129 0 0 1 0 365.86 Z" class="st13"/>
			</g>
			<g id="shape461-111" transform="translate(66.4075,-5.68434E-14) scale(-1,1)">
				<title>Circle.461</title>
				<path d="M0 365.86 A5.61129 5.61129 0 0 1 11.22 365.86 A5.61129 5.61129 0 0 1 0 365.86 Z" class="st15"/>
			</g>
			<g id="shape462-113" transform="translate(118.964,-5.68434E-14) scale(-1,1)">
				<title>Circle.462</title>
				<path d="M0 365.86 A5.61129 5.61129 0 0 1 11.22 365.86 A5.61129 5.61129 0 0 1 0 365.86 Z" class="st15"/>
			</g>
			<g id="shape465-115" transform="translate(534.921,328.989) rotate(90)">
				<title>Diamond.115</title>
				<path d="M7.36 371.47 L14.72 364.1 L7.36 356.74 L0 364.1 L7.36 371.47 Z" class="st11"/>
			</g>
		</g>
		<g id="shape476-117" transform="translate(169.844,-67.9134)">
			<title>Sheet.476</title>
			<desc>actual</desc>
			<rect x="0" y="364.74" width="29.5236" height="6.72729" class="st18"/>
			<text x="4.88" y="370.5" class="st4">actual</text>		</g>
		<g id="shape478-120" transform="translate(364.062,-49.6063)">
			<title>Sheet.478</title>
			<desc>expected</desc>
			<rect x="0" y="364.74" width="38.4572" height="6.72729" class="st18"/>
			<text x="4.29" y="370.5" class="st4">expected</text>		</g>
		<g id="shape479-123" transform="translate(18.5,-336.024)">
			<title>Sheet.479</title>
			<desc>&#60;uvme_mapu_probe_if&#62;</desc>
			<rect x="0" y="354.524" width="218.148" height="16.9434" class="st19"/>
			<text x="4" y="367.52" class="st20">&#60;uvme_mapu_probe_if&#62;</text>		</g>
		<g id="shape480-126" transform="translate(505.519,-246.898)">
			<title>Sheet.480</title>
			<desc>vif</desc>
			<rect x="0" y="360.663" width="18.2227" height="10.8041" class="st21"/>
			<text x="4.18" y="369.06" class="st22">vif</text>		</g>
		<g id="shape481-129" transform="translate(504.683,646.672) scale(1,-1)">
			<title>Circle.121</title>
			<path d="M0 365.86 A5.61129 5.61129 0 0 1 11.22 365.86 A5.61129 5.61129 0 0 1 0 365.86 Z" class="st11"/>
		</g>
		<g id="shape482-131" transform="translate(432.341,646.672) scale(1,-1)">
			<title>Circle.449</title>
			<path d="M0 365.86 A5.61129 5.61129 0 0 1 11.22 365.86 A5.61129 5.61129 0 0 1 0 365.86 Z" class="st13"/>
		</g>
		<g id="shape483-133" transform="translate(469.249,646.672) scale(1,-1)">
			<title>Circle.483</title>
			<path d="M0 365.86 A5.61129 5.61129 0 0 1 11.22 365.86 A5.61129 5.61129 0 0 1 0 365.86 Z" class="st11"/>
		</g>
		<g id="shape484-135" transform="translate(430.866,-52.694)">
			<title>Dynamic connector.484</title>
			<desc>cp</desc>
			<path d="M7.09 371.47 L7.09 345.28" class="st8"/>
			<rect x="2.81952" y="349.895" width="8.53418" height="10.7998" class="st23"/>
			<text x="2.82" y="357.99" class="st24">cp</text>		</g>
		<g id="shape485-142" transform="translate(467.773,-52.6434)">
			<title>Dynamic connector.485</title>
			<desc>dpi</desc>
			<path d="M7.09 371.47 L7.09 345.23" class="st6"/>
			<rect x="1.32538" y="349.869" width="11.5225" height="10.7998" class="st23"/>
			<text x="1.33" y="357.97" class="st25">dpi</text>		</g>
		<g id="shape486-149" transform="translate(503.208,-52.7953)">
			<title>Dynamic connector.486</title>
			<desc>dpo</desc>
			<path d="M7.09 371.47 L7.09 345.38" class="st6"/>
			<rect x="-0.0149485" y="349.945" width="14.2031" height="10.7998" class="st23"/>
			<text x="-0.01" y="358.05" class="st25">dpo</text>		</g>
	</g>
</svg>