<?xml version="1.0" encoding="UTF-8" standalone="no"?>
<!DOCTYPE svg PUBLIC "-//W3C//DTD SVG 1.1//EN" "http://www.w3.org/Graphics/SVG/1.1/DTD/svg11.dtd">
<!-- Generated by Microsoft Visio, SVG Export block_diagram.svg Page-1 -->
<svg xmlns="http://www.w3.org/2000/svg" xmlns:xlink="http://www.w3.org/1999/xlink" xmlns:ev="http://www.w3.org/2001/xml-events"
		width="5.25111in" height="3.64982in" viewBox="0 0 378.08 262.787" xml:space="preserve" color-interpolation-filters="sRGB"
		class="st12">
	<title>dadder_top</title>

	<style type="text/css">
	<![CDATA[
		.st1 {fill:#f2f2f2;stroke:#000000;stroke-width:1}
		.st2 {fill:#000000;font-family:Calibri;font-size:1.5em}
		.st3 {font-size:0.555557em}
		.st4 {fill:#ff0000;font-size:0.555557em}
		.st5 {marker-end:url(#mrkr5-12);stroke:#000000;stroke-linecap:round;stroke-linejoin:round;stroke-width:1}
		.st6 {fill:#000000;fill-opacity:1;stroke:#000000;stroke-opacity:1;stroke-width:0.28409090909091}
		.st7 {stroke:#000000;stroke-linecap:round;stroke-linejoin:round;stroke-width:1}
		.st8 {fill:#ffffff;stroke:#000000;stroke-width:1}
		.st9 {stroke:#ff0000;stroke-linecap:round;stroke-linejoin:round;stroke-width:1}
		.st10 {fill:none;stroke:none;stroke-width:0.25}
		.st11 {fill:#000000;font-family:Calibri;font-size:1.00001em}
		.st12 {fill:none;fill-rule:evenodd;font-size:12px;overflow:visible;stroke-linecap:square;stroke-miterlimit:3}
	]]>
	</style>

	<defs id="Markers">
		<g id="lend5">
			<path d="M 2 1 L 0 0 L 1.98117 -0.993387 C 1.67173 -0.364515 1.67301 0.372641 1.98465 1.00043 " style="stroke:none"/>
		</g>
		<marker id="mrkr5-12" class="st6" refX="-6.16" orient="auto" markerUnits="strokeWidth" overflow="visible">
			<use xlink:href="#lend5" transform="scale(-3.52,-3.52) "/>
		</marker>
	</defs>
	<g>
		<title>Page-1</title>
		<g id="shape1-1" transform="translate(100.288,-68.0138)">
			<title>Sheet.1</title>
			<desc>dadder_top #(DATA_WIDTH=8)</desc>
			<rect x="0" y="127.524" width="180.293" height="135.263" class="st1"/>
			<text x="47.06" y="189.76" class="st2">dadder_top <tspan x="51.47" dy="2.16em" class="st3">#(</tspan><tspan class="st4">DATA_WIDTH=8</tspan><tspan
						class="st3">)</tspan></text>		</g>
		<g id="shape2-7" transform="translate(71.9415,-167.226)">
			<title>Sheet.2</title>
			<path d="M0 262.79 L22.19 262.79" class="st5"/>
		</g>
		<g id="shape3-13" transform="translate(71.9415,-133.211)">
			<title>Sheet.3</title>
			<path d="M0 262.79 L22.19 262.79" class="st5"/>
		</g>
		<g id="shape4-18" transform="translate(71.9415,-99.1949)">
			<title>Sheet.4</title>
			<path d="M0 262.79 L22.19 262.79" class="st5"/>
		</g>
		<g id="shape5-23" transform="translate(280.581,-97.7776)">
			<title>Sheet.5</title>
			<path d="M0 262.79 L21.81 262.79" class="st5"/>
		</g>
		<g id="shape6-28" transform="translate(280.581,-133.211)">
			<title>Sheet.6</title>
			<path d="M0 262.79 L22.19 262.79" class="st5"/>
		</g>
		<g id="shape7-33" transform="translate(280.581,-167.226)">
			<title>Sheet.7</title>
			<path d="M0 262.79 L22.19 262.79" class="st5"/>
		</g>
		<g id="shape8-38" transform="translate(416.933,36.8327) rotate(90)">
			<title>Sheet.8</title>
			<path d="M0 262.79 L16.52 262.79" class="st5"/>
		</g>
		<g id="shape10-43" transform="translate(484.398,36.8327) rotate(90)">
			<title>Sheet.10</title>
			<path d="M0 262.79 L16.52 262.79" class="st5"/>
		</g>
		<g id="shape11-48" transform="translate(-43.444,223.664) rotate(-90)">
			<title>Sheet.11</title>
			<path d="M0 262.79 L22.73 262.79" class="st5"/>
		</g>
		<g id="shape12-53" transform="translate(-108.641,223.664) rotate(-90)">
			<title>Sheet.12</title>
			<path d="M0 262.79 L28.89 262.79" class="st7"/>
		</g>
		<g id="shape14-56" transform="translate(150.028,-68.0259)">
			<title>Triangle</title>
			<path d="M8.25 262.79 L4.13 254.53 L0 262.79 L8.25 262.79 Z" class="st8"/>
		</g>
		<g id="shape15-58" transform="translate(272.1,311.893) rotate(135)">
			<title>Sheet.15</title>
			<path d="M0 262.79 L10.61 262.79" class="st9"/>
		</g>
		<g id="shape16-61" transform="translate(272.267,277.711) rotate(135)">
			<title>Sheet.16</title>
			<path d="M0 262.79 L10.61 262.79" class="st9"/>
		</g>
		<g id="shape17-64" transform="translate(481.697,312.06) rotate(135)">
			<title>Sheet.17</title>
			<path d="M0 262.79 L10.61 262.79" class="st9"/>
		</g>
		<g id="shape18-67" transform="translate(139.973,-224.537)">
			<title>Sheet.18</title>
			<desc>en</desc>
			<rect x="0" y="242.787" width="28.478" height="20" class="st10"/>
			<text x="8.1" y="256.39" class="st11">en</text>		</g>
		<g id="shape19-70" transform="translate(208.005,-224.537)">
			<title>Sheet.19</title>
			<desc>op</desc>
			<rect x="0" y="242.787" width="28.478" height="20" class="st10"/>
			<text x="7.92" y="256.39" class="st11">op</text>		</g>
		<g id="shape20-73" transform="translate(139.973,-18.4075)">
			<title>Sheet.20</title>
			<desc>clk</desc>
			<rect x="0" y="242.787" width="28.478" height="20" class="st10"/>
			<text x="7.6" y="256.39" class="st11">clk</text>		</g>
		<g id="shape21-76" transform="translate(196.868,-18.25)">
			<title>Sheet.21</title>
			<desc>reset_n</desc>
			<rect x="0" y="242.787" width="45.4859" height="20" class="st10"/>
			<text x="4.18" y="256.39" class="st11">reset_n</text>		</g>
		<g id="shape22-79" transform="translate(308.718,-157.226)">
			<title>Sheet.22</title>
			<desc>vld_out</desc>
			<rect x="0" y="242.787" width="45.4859" height="20" class="st10"/>
			<text x="4.19" y="256.39" class="st11">vld_out</text>		</g>
		<g id="shape23-82" transform="translate(307.217,-123.211)">
			<title>Sheet.23</title>
			<desc>data_out</desc>
			<rect x="0" y="242.787" width="52.6127" height="20" class="st10"/>
			<text x="4.08" y="256.39" class="st11">data_out</text>		</g>
		<g id="shape24-85" transform="translate(301.841,-89.1949)">
			<title>Sheet.24</title>
			<desc>of_out</desc>
			<rect x="0" y="242.787" width="52.6127" height="20" class="st10"/>
			<text x="10" y="256.39" class="st11">of_out</text>		</g>
		<g id="shape25-88" transform="translate(26.4557,-157.226)">
			<title>Sheet.25</title>
			<desc>op_a</desc>
			<rect x="0" y="242.787" width="45.4859" height="20" class="st10"/>
			<text x="17.13" y="256.39" class="st11">op_a</text>		</g>
		<g id="shape26-91" transform="translate(19.3288,-123.211)">
			<title>Sheet.26</title>
			<desc>op_b</desc>
			<rect x="0" y="242.787" width="52.6127" height="20" class="st10"/>
			<text x="23.7" y="256.39" class="st11">op_b</text>		</g>
		<g id="shape27-94" transform="translate(18.25,-89.1949)">
			<title>Sheet.27</title>
			<desc>carry_in</desc>
			<rect x="0" y="242.787" width="52.6127" height="20" class="st10"/>
			<text x="8.96" y="256.39" class="st11">carry_in</text>		</g>
	</g>
</svg>
