<?xml version="1.0" encoding="UTF-8" standalone="no"?>
<!DOCTYPE svg PUBLIC "-//W3C//DTD SVG 1.1//EN" "http://www.w3.org/Graphics/SVG/1.1/DTD/svg11.dtd">
<!-- Generated by Microsoft Visio, SVG Export tb_block_diagram.svg Page-1 -->
<svg xmlns="http://www.w3.org/2000/svg" xmlns:xlink="http://www.w3.org/1999/xlink" xmlns:ev="http://www.w3.org/2001/xml-events"
		width="13.4283in" height="6.41909in" viewBox="0 0 966.839 462.175" xml:space="preserve" color-interpolation-filters="sRGB"
		class="st30">
	<style type="text/css">
	<![CDATA[
		.st1 {fill:#ffffff;stroke:#000000;stroke-linecap:round;stroke-linejoin:round;stroke-width:1}
		.st2 {fill:#000000;font-family:Calibri;font-size:0.833336em;font-weight:bold}
		.st3 {fill:none;stroke:#000000;stroke-linecap:round;stroke-linejoin:round;stroke-width:1}
		.st4 {fill:#000000;font-family:Calibri;font-size:0.666664em}
		.st5 {font-size:1.25001em;font-weight:bold}
		.st6 {marker-end:url(#mrkr4-13);stroke:#000000;stroke-linecap:round;stroke-linejoin:round;stroke-width:1}
		.st7 {fill:#000000;fill-opacity:1;stroke:#000000;stroke-opacity:1;stroke-width:0.28409090909091}
		.st8 {fill:#ffffff;stroke:#00b050;stroke-linecap:round;stroke-linejoin:round;stroke-width:1}
		.st9 {fill:#f2f2f2;stroke:#000000;stroke-linecap:round;stroke-linejoin:round;stroke-width:1}
		.st10 {stroke:#00b050;stroke-dasharray:1,2;stroke-linecap:round;stroke-linejoin:round;stroke-width:1}
		.st11 {marker-end:url(#mrkr5-61);marker-start:url(#mrkr5-59);stroke:#000000;stroke-linecap:round;stroke-linejoin:round;stroke-width:1}
		.st12 {stroke:#000000;stroke-linecap:round;stroke-linejoin:round;stroke-width:0.75}
		.st13 {fill:#ffffff;stroke:#ffc000;stroke-linecap:round;stroke-linejoin:round;stroke-width:1}
		.st14 {fill:#ffffff;stroke:#0070c0;stroke-linecap:round;stroke-linejoin:round;stroke-width:1}
		.st15 {stroke:#ff0000;stroke-dasharray:1,2;stroke-linecap:round;stroke-linejoin:round;stroke-width:1}
		.st16 {stroke:#0070c0;stroke-dasharray:1,2;stroke-linecap:round;stroke-linejoin:round;stroke-width:1}
		.st17 {fill:#ffffff;stroke:#ff0000;stroke-linecap:round;stroke-linejoin:round;stroke-width:1}
		.st18 {fill:none;stroke:none;stroke-linecap:round;stroke-linejoin:round;stroke-width:1}
		.st19 {stroke:#000000;stroke-linecap:round;stroke-linejoin:round;stroke-width:1}
		.st20 {fill:#f2f2f2;stroke:#000000;stroke-width:1}
		.st21 {fill:#000000;font-family:Calibri;font-size:1.5em}
		.st22 {fill:#ff66ff;font-size:0.555557em}
		.st23 {marker-end:url(#mrkr5-61);stroke:#000000;stroke-linecap:round;stroke-linejoin:round;stroke-width:1}
		.st24 {fill:#ffffff;stroke:#000000;stroke-width:1}
		.st25 {fill:none;stroke:none;stroke-width:0.25}
		.st26 {fill:#000000;font-family:Calibri;font-size:1.00001em}
		.st27 {stroke:#ff66ff;stroke-linecap:round;stroke-linejoin:round;stroke-width:1}
		.st28 {marker-start:url(#mrkr5-59);stroke:#000000;stroke-linecap:round;stroke-linejoin:round;stroke-width:1}
		.st29 {stroke:#ffc000;stroke-dasharray:1,2;stroke-linecap:round;stroke-linejoin:round;stroke-width:1}
		.st30 {fill:none;fill-rule:evenodd;font-size:12px;overflow:visible;stroke-linecap:square;stroke-miterlimit:3}
	]]>
	</style>

	<defs id="Markers">
		<g id="lend4">
			<path d="M 2 1 L 0 0 L 2 -1 L 2 1 " style="stroke:none"/>
		</g>
		<marker id="mrkr4-13" class="st7" refX="-7.04" orient="auto" markerUnits="strokeWidth" overflow="visible">
			<use xlink:href="#lend4" transform="scale(-3.52,-3.52) "/>
		</marker>
		<g id="lend5">
			<path d="M 2 1 L 0 0 L 1.98117 -0.993387 C 1.67173 -0.364515 1.67301 0.372641 1.98465 1.00043 " style="stroke:none"/>
		</g>
		<marker id="mrkr5-59" class="st7" refX="5.8" orient="auto" markerUnits="strokeWidth" overflow="visible">
			<use xlink:href="#lend5" transform="scale(3.52) "/>
		</marker>
		<marker id="mrkr5-61" class="st7" refX="-6.16" orient="auto" markerUnits="strokeWidth" overflow="visible">
			<use xlink:href="#lend5" transform="scale(-3.52,-3.52) "/>
		</marker>
	</defs>
	<g>
		<title>Page-1</title>
		<g id="shape1-1" transform="translate(480.646,-18.5)">
			<title>Sheet.1</title>
			<desc>&#60;uvmt_mapu_tb&#62;</desc>
			<rect x="0" y="37" width="467.692" height="425.175" class="st1"/>
			<text x="4" y="50" class="st2">&#60;uvmt_mapu_tb&#62;</text>		</g>
		<g id="shape98-4" transform="translate(554.59,-92.6386)">
			<title>Sheet.98</title>
			<desc>&#60;uvmt_mapu_dut_wrap&#62; dut_wrap</desc>
			<rect x="0" y="198.936" width="317.957" height="263.239" class="st3"/>
			<text x="4" y="210.14" class="st4">&#60;uvmt_mapu_dut_wrap&#62;                         <tspan x="138.73" dy="24.18em"
						class="st5">dut_wrap</tspan></text>		</g>
		<g id="shape166-8" transform="translate(149.932,407.725) rotate(-90)">
			<title>Sheet.166</title>
			<path d="M0 462.17 L31.15 462.17" class="st6"/>
		</g>
		<g id="shape159-14" transform="translate(528.71,-36.4515)">
			<title>Sheet.159</title>
			<desc>&#60;uvma_clk_if&#62; clk_if</desc>
			<rect x="0" y="433.814" width="166.373" height="28.3607" class="st8"/>
			<text x="59.63" y="444.39" class="st4">&#60;uvma_clk_if&#62; <tspan x="72.17" dy="1.14em" class="st5">clk_if</tspan></text>		</g>
		<g id="shape213-18" transform="translate(739.448,-36.4515)">
			<title>Sheet.213</title>
			<desc>&#60;uvma_reset_if&#62; reset_if</desc>
			<rect x="0" y="433.814" width="166.373" height="28.3607" class="st8"/>
			<text x="55.78" y="444.39" class="st4">&#60;uvma_reset_if&#62; <tspan x="67.35" dy="1.14em" class="st5">reset_if</tspan></text>		</g>
		<g id="shape215-22" transform="translate(18.5,-124.162)">
			<title>Sheet.215</title>
			<desc>&#60;uvmt_mapu_base_test_c&#62;</desc>
			<rect x="0" y="275.098" width="443.661" height="187.077" class="st1"/>
			<text x="4" y="288.1" class="st2">&#60;uvmt_mapu_base_test_c&#62;</text>		</g>
		<g id="shape216-25" transform="translate(207.251,-239.796)">
			<title>Sheet.216</title>
			<desc>&#60;uvme_mapu_vsqr_c&#62; vsequencer</desc>
			<rect x="0" y="415.328" width="236.424" height="46.8466" class="st9"/>
			<text x="81.28" y="426.53" class="st4">&#60;uvme_mapu_vsqr_c&#62; <tspan x="94.38" dy="1.14em" class="st5">vsequencer</tspan></text>		</g>
		<g id="shape217-29" transform="translate(27.7429,-130.668)">
			<title>Sheet.217</title>
			<desc>&#60;uvmt_mapu_test_cfg_c&#62; test_cfg</desc>
			<rect x="0" y="415.328" width="166.373" height="46.8466" class="st3"/>
			<text x="40.75" y="426.53" class="st4">&#60;uvmt_mapu_test_cfg_c&#62; <tspan x="66.67" dy="1.14em" class="st5">test_cfg</tspan></text>		</g>
		<g id="shape218-33" transform="translate(27.7429,-239.447)">
			<title>Sheet.218</title>
			<desc>&#60;uvme_mapu_cntxt_c&#62; env_cntxt</desc>
			<rect x="0" y="415.328" width="166.373" height="46.8466" class="st3"/>
			<text x="44.92" y="426.53" class="st4">&#60;uvme_mapu_cntxt_c&#62; <tspan x="62.59" dy="1.14em" class="st5">env_cntxt</tspan></text>		</g>
		<g id="shape219-37" transform="translate(207.251,-186.506)">
			<title>Sheet.219</title>
			<desc>&#60;uvme_mapu_env_c&#62; env</desc>
			<rect x="0" y="415.328" width="236.424" height="46.8466" class="st9"/>
			<text x="82.25" y="426.53" class="st4">&#60;uvme_mapu_env_c&#62; <tspan x="110.65" dy="1.14em" class="st5">env</tspan></text>		</g>
		<g id="shape220-41" transform="translate(27.7429,-186.446)">
			<title>Sheet.220</title>
			<desc>&#60;uvme_mapu_cfg_c&#62; env_cfg</desc>
			<rect x="0" y="415.328" width="166.373" height="46.8466" class="st3"/>
			<text x="48.33" y="426.53" class="st4">&#60;uvme_mapu_cfg_c&#62; <tspan x="67.09" dy="1.14em" class="st5">env_cfg</tspan></text>		</g>
		<g id="shape260-45" transform="translate(360.547,396.592) rotate(-90)">
			<title>Sheet.260</title>
			<path d="M0 462.17 L19.52 462.17" class="st6"/>
		</g>
		<g id="shape222-50" transform="translate(391.76,853.795) rotate(-162.776)">
			<title>Sheet.222</title>
			<path d="M0 462.17 L272.89 462.17" class="st10"/>
		</g>
		<g id="shape265-53" transform="translate(1174.04,79.5034) rotate(90)">
			<title>Sheet.265</title>
			<path d="M5.8 462.17 L6.16 462.17 L20.63 462.17" class="st11"/>
		</g>
		<g id="shape268-62" transform="translate(388.648,-196.513) rotate(24.8918)">
			<title>Sheet.268</title>
			<path d="M0 462.17 L14.48 462.17" class="st12"/>
		</g>
		<g id="shape269-65" transform="translate(194.116,-209.618)">
			<title>Sheet.269</title>
			<path d="M0 462.17 L13.14 462.17" class="st12"/>
		</g>
		<g id="shape270-68" transform="translate(-134.961,228.823) rotate(-90)">
			<title>Sheet.270</title>
			<path d="M0 462.17 L6.44 462.17" class="st12"/>
		</g>
		<g id="shape272-71" transform="translate(527.493,-225.059)">
			<title>Sheet.272</title>
			<path d="M0 462.17 L20.06 462.17" class="st6"/>
		</g>
		<g id="shape273-76" transform="translate(464.515,368.725) rotate(-90)">
			<title>Sheet.273</title>
			<desc>Data Plane Ouput</desc>
			<rect x="0" y="433.814" width="314.639" height="28.3607" class="st13"/>
			<text x="120.52" y="450.99" class="st2">Data Plane Ouput</text>		</g>
		<g id="shape274-79" transform="translate(872.547,-225.059)">
			<title>Sheet.274</title>
			<path d="M0 462.17 L20.06 462.17" class="st6"/>
		</g>
		<g id="shape277-84" transform="translate(207.328,-130.632)">
			<title>Sheet.277</title>
			<desc>&#60;uvma_clk_agent_c&#62; clk_agent</desc>
			<rect x="0" y="415.328" width="114.32" height="46.8466" class="st9"/>
			<text x="22.83" y="426.53" class="st4">&#60;uvma_clk_agent_c&#62; <tspan x="37.18" dy="1.14em" class="st5">clk_agent</tspan></text>		</g>
		<g id="shape278-88" transform="translate(329.658,-130.632)">
			<title>Sheet.278</title>
			<desc>&#60;uvma_reset_agent_c&#62; reset_agent</desc>
			<rect x="0" y="415.328" width="114.031" height="46.8466" class="st9"/>
			<text x="18.83" y="426.53" class="st4">&#60;uvma_reset_agent_c&#62; <tspan x="32.21" dy="1.14em" class="st5">reset_agent</tspan></text>		</g>
		<g id="shape271-92" transform="translate(69.064,368.72) rotate(-90)">
			<title>Sheet.271</title>
			<desc>Data Plane Input</desc>
			<rect x="0" y="433.814" width="314.639" height="28.3607" class="st14"/>
			<text x="122.56" y="450.99" class="st2">Data Plane Input</text>		</g>
		<g id="shape263-95" transform="translate(937.172,223.815) rotate(109.95)">
			<title>Sheet.263</title>
			<path d="M0 462.17 L173.09 462.17" class="st15"/>
		</g>
		<g id="shape275-98" transform="translate(829.685,520.037) rotate(135)">
			<title>Sheet.275</title>
			<path d="M0 462.17 L83.73 462.17" class="st16"/>
		</g>
		<g id="shape261-101" transform="translate(502.732,-382.607)">
			<title>Sheet.261</title>
			<desc>Control Plane</desc>
			<rect x="0" y="436.628" width="424.066" height="25.5463" class="st17"/>
			<text x="183.9" y="452.4" class="st2">Control Plane</text>		</g>
		<g id="shape283-104" transform="translate(573.286,-412.613)">
			<title>Sheet.283</title>
			<desc>&#60;uvma_mapu_if&#62;</desc>
			<rect x="0" y="447.463" width="278.212" height="14.7117" class="st18"/>
			<text x="110.66" y="457.22" class="st4">&#60;uvma_mapu_if&#62;</text>		</g>
		<g id="shape284-107" transform="translate(1174.09,47.7788) rotate(90)">
			<title>Sheet.284</title>
			<path d="M0 462.17 L4.95 462.17" class="st19"/>
		</g>
		<g id="shape223-110" transform="translate(636.607,862.739) rotate(-167.143)">
			<title>Sheet.223</title>
			<path d="M0 462.17 L362.26 462.17" class="st10"/>
		</g>
		<g id="group336-113" transform="translate(541.829,-111.631)">
			<title>Sheet.336</title>
			<g id="shape287-114" transform="translate(79.7433,-53.8583)">
				<title>Sheet.287</title>
				<desc>mapu_top DATA_WIDTH</desc>
				<rect x="0" y="323.955" width="180.293" height="138.22" class="st20"/>
				<text x="52.22" y="387.66" class="st21">mapu_top <tspan x="62.02" dy="2.16em" class="st22">DATA_WIDTH</tspan></text>			</g>
			<g id="shape288-118" transform="translate(595.776,247.419) rotate(90)">
				<title>Sheet.288</title>
				<path d="M0 462.17 L16.52 462.17" class="st23"/>
			</g>
			<g id="shape289-123" transform="translate(634.865,247.419) rotate(90)">
				<title>Sheet.289</title>
				<path d="M0 462.17 L16.52 462.17" class="st23"/>
			</g>
			<g id="shape290-128" transform="translate(-263.376,434.714) rotate(-90)">
				<title>Sheet.290</title>
				<path d="M0 462.17 L20.24 462.17" class="st23"/>
			</g>
			<g id="shape291-133" transform="translate(-328.573,433.828) rotate(-90)">
				<title>Sheet.291</title>
				<path d="M0 462.17 L25.51 462.17" class="st19"/>
			</g>
			<g id="shape292-136" transform="translate(129.483,-45.4794)">
				<title>Triangle</title>
				<path d="M8.25 462.17 L4.13 453.92 L0 462.17 L8.25 462.17 Z" class="st24"/>
			</g>
			<g id="shape293-138" transform="translate(117.713,-215.573)">
				<title>Sheet.293</title>
				<desc>i_en</desc>
				<rect x="0" y="442.175" width="31.8211" height="20" class="st25"/>
				<text x="5.41" y="455.77" class="st26">i_en</text>			</g>
			<g id="shape294-141" transform="translate(156.845,-215.573)">
				<title>Sheet.294</title>
				<desc>i_op</desc>
				<rect x="0" y="442.175" width="31.8211" height="20" class="st25"/>
				<text x="5.23" y="455.77" class="st26">i_op</text>			</g>
			<g id="shape295-144" transform="translate(119.428,-8.76279)">
				<title>Sheet.295</title>
				<desc>clk</desc>
				<rect x="0" y="442.175" width="28.478" height="20" class="st25"/>
				<text x="7.6" y="455.77" class="st26">clk</text>			</g>
			<g id="shape296-147" transform="translate(176.323,-8.76279)">
				<title>Sheet.296</title>
				<desc>reset_n</desc>
				<rect x="0" y="442.175" width="45.4859" height="20" class="st25"/>
				<text x="4.18" y="455.77" class="st26">reset_n</text>			</g>
			<g id="group297-150" transform="translate(6.31867,-68.0138)">
				<title>Sheet.297</title>
				<g id="shape298-151" transform="translate(45.4859,-10)">
					<title>Sheet.298</title>
					<path d="M0 462.17 L22.19 462.17" class="st23"/>
				</g>
				<g id="shape299-156" transform="translate(386.799,775.313) rotate(135)">
					<title>Sheet.299</title>
					<path d="M0 462.17 L10.61 462.17" class="st27"/>
				</g>
				<g id="shape300-159">
					<title>Sheet.300</title>
					<desc>i_r2</desc>
					<rect x="0" y="442.175" width="45.4859" height="20" class="st25"/>
					<text x="22.49" y="455.77" class="st26">i_r2</text>				</g>
			</g>
			<g id="group301-162" transform="translate(260.036,-110.533)">
				<title>Sheet.301</title>
				<g id="shape302-163" transform="translate(5.00329E-05,-10) rotate(6.20258E-06)">
					<title>Sheet.302</title>
					<path d="M0 462.17 L22.19 462.17" class="st23"/>
				</g>
				<g id="shape303-168" transform="translate(342.104,775.647) rotate(135)">
					<title>Sheet.303</title>
					<path d="M0 462.17 L10.61 462.17" class="st27"/>
				</g>
				<g id="shape304-171" transform="translate(26.6361,5.68434E-14)">
					<title>Sheet.304</title>
					<desc>o_r0</desc>
					<rect x="0" y="442.175" width="52.6127" height="20" class="st25"/>
					<text x="4" y="455.77" class="st26">o_r0</text>				</g>
			</g>
			<g id="group305-174" transform="translate(260.444,-89.1949)">
				<title>Sheet.305</title>
				<g id="shape306-175" transform="translate(5.00329E-05,-10) rotate(6.20258E-06)">
					<title>Sheet.306</title>
					<path d="M0 462.17 L22.19 462.17" class="st23"/>
				</g>
				<g id="shape307-180" transform="translate(342.104,775.647) rotate(135)">
					<title>Sheet.307</title>
					<path d="M0 462.17 L10.61 462.17" class="st27"/>
				</g>
				<g id="shape308-183" transform="translate(26.6361,5.68434E-14)">
					<title>Sheet.308</title>
					<desc>o_r1</desc>
					<rect x="0" y="442.175" width="52.6127" height="20" class="st25"/>
					<text x="4" y="455.77" class="st26">o_r1</text>				</g>
			</g>
			<g id="group309-186" transform="translate(259.879,-68.0138)">
				<title>Sheet.309</title>
				<g id="shape310-187" transform="translate(5.00329E-05,-10) rotate(6.20258E-06)">
					<title>Sheet.310</title>
					<path d="M0 462.17 L22.19 462.17" class="st23"/>
				</g>
				<g id="shape311-192" transform="translate(342.104,775.647) rotate(135)">
					<title>Sheet.311</title>
					<path d="M0 462.17 L10.61 462.17" class="st27"/>
				</g>
				<g id="shape312-195" transform="translate(26.6361,5.68434E-14)">
					<title>Sheet.312</title>
					<desc>o_r2</desc>
					<rect x="0" y="442.175" width="52.6127" height="20" class="st25"/>
					<text x="4" y="455.77" class="st26">o_r2</text>				</g>
			</g>
			<g id="group313-198" transform="translate(5.8277,-110.533)">
				<title>Sheet.313</title>
				<g id="shape314-199" transform="translate(45.4859,-10)">
					<title>Sheet.314</title>
					<path d="M0 462.17 L22.19 462.17" class="st23"/>
				</g>
				<g id="shape315-204" transform="translate(386.799,775.313) rotate(135)">
					<title>Sheet.315</title>
					<path d="M0 462.17 L10.61 462.17" class="st27"/>
				</g>
				<g id="shape316-207">
					<title>Sheet.316</title>
					<desc>i_r0</desc>
					<rect x="0" y="442.175" width="45.4859" height="20" class="st25"/>
					<text x="22.49" y="455.77" class="st26">i_r0</text>				</g>
			</g>
			<g id="group317-210" transform="translate(5.66095,-89.1949)">
				<title>Sheet.317</title>
				<g id="shape318-211" transform="translate(45.4859,-10)">
					<title>Sheet.318</title>
					<path d="M0 462.17 L22.19 462.17" class="st23"/>
				</g>
				<g id="shape319-216" transform="translate(386.799,775.313) rotate(135)">
					<title>Sheet.319</title>
					<path d="M0 462.17 L10.61 462.17" class="st27"/>
				</g>
				<g id="shape320-219">
					<title>Sheet.320</title>
					<desc>i_r1</desc>
					<rect x="0" y="442.175" width="45.4859" height="20" class="st25"/>
					<text x="22.49" y="455.77" class="st26">i_r1</text>				</g>
			</g>
			<g id="group321-222" transform="translate(260.527,-157.305)">
				<title>Sheet.321</title>
				<g id="shape322-223" transform="translate(5.00329E-05,-10) rotate(6.20258E-06)">
					<title>Sheet.322</title>
					<path d="M0 462.17 L22.19 462.17" class="st23"/>
				</g>
				<g id="shape323-228" transform="translate(26.6361,5.68434E-14)">
					<title>Sheet.323</title>
					<desc>o_vld</desc>
					<rect x="0" y="442.175" width="52.6127" height="20" class="st25"/>
					<text x="4" y="455.77" class="st26">o_vld</text>				</g>
			</g>
			<g id="group324-231" transform="translate(260.194,-140.455)">
				<title>Sheet.324</title>
				<g id="shape325-232" transform="translate(5.00329E-05,-10) rotate(6.20258E-06)">
					<title>Sheet.325</title>
					<path d="M5.8 462.17 L6.16 462.17 L28.35 462.17" class="st28"/>
				</g>
				<g id="shape326-237" transform="translate(27.3031,5.68434E-14)">
					<title>Sheet.326</title>
					<desc>i_rdy</desc>
					<rect x="0" y="442.175" width="52.6127" height="20" class="st25"/>
					<text x="4" y="455.77" class="st26">i_rdy</text>				</g>
			</g>
			<g id="group327-240" transform="translate(79.2488,-157.305) scale(-1,1)">
				<title>Sheet.327</title>
				<g id="shape328-241" transform="translate(5.00329E-05,-10) rotate(6.20258E-06)">
					<title>Sheet.328</title>
					<path d="M5.8 462.17 L6.16 462.17 L28.35 462.17" class="st28"/>
				</g>
				<g id="shape329-246" transform="translate(26.6361,5.68434E-14)">
					<title>Sheet.329</title>
					<desc>i_vld</desc>
					<rect x="0" y="442.175" width="52.6127" height="20" class="st25"/>
					<text x="-27.21" y="455.77" transform="scale(-1,1)" class="st26">i_vld</text>				</g>
			</g>
			<g id="group330-249" transform="translate(79.5823,-140.455) scale(-1,1)">
				<title>Sheet.330</title>
				<g id="shape331-250" transform="translate(5.00329E-05,-10) rotate(6.20258E-06)">
					<title>Sheet.331</title>
					<path d="M0 462.17 L22.19 462.17" class="st23"/>
				</g>
				<g id="shape332-255" transform="translate(27.3031,5.68434E-14)">
					<title>Sheet.332</title>
					<desc>o_rdy</desc>
					<rect x="0" y="442.175" width="52.6127" height="20" class="st25"/>
					<text x="-32.22" y="455.77" transform="scale(-1,1)" class="st26">o_rdy</text>				</g>
			</g>
			<g id="shape333-258" transform="translate(675.648,270.246) rotate(90) scale(-1,1)">
				<title>Sheet.333</title>
				<path d="M0 462.17 L16.52 462.17" class="st23"/>
			</g>
			<g id="shape334-263" transform="translate(197.627,-215.424)">
				<title>Sheet.334</title>
				<desc>o_of</desc>
				<rect x="0" y="442.175" width="31.8211" height="20" class="st25"/>
				<text x="4.76" y="455.77" class="st26">o_of</text>			</g>
		</g>
		<g id="shape276-266" transform="translate(897.867,715.348) rotate(180)">
			<title>Sheet.276</title>
			<path d="M0 462.17 L453.45 462.17" class="st29"/>
		</g>
	</g>
</svg>
